<?xml version="1.0" standalone="no"?>
<!DOCTYPE svg PUBLIC "-//W3C//DTD SVG 20010904//EN"
 "http://www.w3.org/TR/2001/REC-SVG-20010904/DTD/svg10.dtd">
<svg version="1.0" xmlns="http://www.w3.org/2000/svg"
 width="288.000000pt" height="288.000000pt" viewBox="0 0 288.000000 288.000000"
 preserveAspectRatio="xMidYMid meet">

<g transform="translate(0.000000,288.000000) scale(0.100000,-0.100000)"
fill="#000000" stroke="none">
<path d="M1783 2633 c-18 -9 -33 -20 -33 -25 0 -5 18 1 40 12 22 11 40 23 40
25 0 8 -13 5 -47 -12z"/>
<path d="M1830 2622 c0 -18 227 -469 241 -478 9 -5 10 -2 6 9 -16 42 -247 480
-247 469z"/>
<path d="M448 2525 c-91 -46 -169 -89 -173 -95 -19 -31 21 -17 185 65 162 80
195 103 164 111 -5 2 -84 -35 -176 -81z"/>
<path d="M1768 2594 c-5 -4 222 -462 239 -483 2 -3 8 0 14 6 8 8 -22 77 -107
244 -111 217 -131 249 -146 233z"/>
<path d="M575 2533 c-38 -19 -72 -37 -74 -39 -2 -1 97 -201 220 -442 l223
-440 73 36 c40 20 73 41 73 46 0 10 -428 857 -438 868 -4 3 -38 -10 -77 -29z"/>
<path d="M363 2423 l-72 -37 220 -438 c121 -241 225 -438 231 -438 5 0 41 16
79 36 l69 36 -223 439 c-122 241 -224 438 -227 438 -3 0 -37 -17 -77 -36z"/>
<path d="M1088 2349 c-43 -22 -78 -44 -78 -50 0 -6 35 9 78 32 87 48 87 48 81
53 -2 2 -39 -14 -81 -35z"/>
<path d="M2475 2304 c-77 -40 -144 -75 -149 -76 -6 -3 93 -219 109 -236 3 -3
305 146 315 155 8 8 -110 233 -122 232 -7 -1 -76 -35 -153 -75z"/>
<path d="M1148 2344 l-28 -15 136 -272 c75 -149 138 -273 139 -275 2 -2 17 4
34 12 l31 16 -138 275 c-75 151 -139 275 -142 275 -3 -1 -17 -7 -32 -16z"/>
<path d="M1047 2294 l-28 -15 79 -152 c44 -84 107 -207 141 -275 l61 -122 31
15 30 16 -136 267 c-75 147 -140 270 -143 274 -4 3 -20 0 -35 -8z"/>
<path d="M2268 2173 c-18 -15 -34 -28 -36 -29 -2 -1 16 -41 40 -88 42 -85 43
-86 73 -80 82 18 81 12 25 124 -28 55 -54 100 -59 100 -5 0 -24 -12 -43 -27z"/>
<path d="M2105 2095 c-55 -30 -104 -56 -109 -58 -6 -2 74 -178 89 -195 4 -4
225 107 225 113 0 10 -95 195 -100 195 -3 0 -50 -25 -105 -55z"/>
<path d="M2040 2110 c-19 -11 -29 -19 -22 -20 14 0 72 28 72 35 0 9 -15 4 -50
-15z"/>
<path d="M1946 1973 c-16 -32 -31 -53 -33 -46 -3 8 -25 2 -69 -20 -40 -19 -63
-36 -60 -44 3 -7 -5 -18 -17 -24 -12 -7 -23 -13 -25 -14 -1 -1 3 -14 9 -29 9
-19 17 -25 28 -20 9 4 25 7 36 6 29 0 135 49 135 64 0 9 14 9 60 -1 33 -7 60
-10 59 -6 0 3 -21 48 -47 99 l-48 93 -28 -58z"/>
<path d="M2157 1854 c-16 -9 -27 -18 -24 -21 3 -2 22 5 44 16 21 11 31 20 23
20 -8 0 -28 -7 -43 -15z"/>
<path d="M1660 1843 c1 -5 18 -40 38 -80 35 -67 38 -71 57 -57 19 14 19 16
-13 79 -26 54 -36 65 -57 65 -14 0 -25 -3 -25 -7z"/>
<path d="M2210 1842 c0 -20 230 -472 241 -472 5 0 -24 66 -65 148 -108 214
-176 339 -176 324z"/>
<path d="M1515 1776 c-66 -35 -164 -87 -218 -115 -87 -46 -96 -53 -87 -71 13
-24 13 -33 -1 -24 -15 9 -129 -46 -129 -62 0 -9 -14 -9 -60 1 -33 7 -60 10
-59 6 0 -3 21 -48 47 -99 l48 -93 28 58 c16 34 30 52 35 45 11 -18 135 43 127
63 -7 20 4 19 19 -2 11 -15 21 -12 106 29 52 25 150 72 217 104 68 33 126 62
128 66 5 8 -67 158 -76 158 -3 -1 -59 -29 -125 -64z"/>
<path d="M2150 1810 c0 -9 227 -469 236 -479 3 -3 9 0 15 6 13 13 -219 483
-238 483 -7 0 -13 -5 -13 -10z"/>
<path d="M1383 1752 c-40 -20 -73 -40 -73 -44 0 -5 36 10 80 32 72 36 94 51
73 49 -5 0 -41 -17 -80 -37z"/>
<path d="M928 1579 c-98 -49 -178 -93 -178 -97 0 -23 21 -16 129 38 196 99
240 125 233 137 -5 7 -68 -20 -184 -78z"/>
<path d="M1495 1543 c-79 -40 -80 -41 -73 -48 7 -8 158 67 158 77 0 13 -11 9
-85 -29z"/>
<path d="M1555 1538 c-11 -6 -21 -12 -23 -13 -4 -3 160 -332 230 -462 l50 -93
28 15 29 15 -139 272 c-76 150 -142 274 -147 275 -4 1 -17 -3 -28 -9z"/>
<path d="M828 1460 c-58 -30 -109 -58 -113 -61 -5 -6 76 -182 91 -198 4 -4
208 90 233 107 5 3 -91 203 -99 206 -3 1 -53 -23 -112 -54z"/>
<path d="M1455 1488 c-11 -6 -21 -12 -23 -13 -3 -2 265 -544 273 -553 2 -2 17
4 34 12 l31 16 -138 275 c-75 151 -141 275 -147 275 -5 0 -19 -6 -30 -12z"/>
<path d="M1069 1287 c-105 -55 -174 -97 -172 -104 3 -8 69 20 188 79 124 62
181 96 178 105 -3 7 -8 13 -12 13 -3 -1 -85 -42 -182 -93z"/>
<path d="M693 1338 c-29 -14 -29 -16 4 -82 l27 -55 28 15 28 15 -30 59 c-17
33 -31 60 -33 59 -1 0 -12 -5 -24 -11z"/>
<path d="M2420 1330 c-19 -11 -29 -19 -22 -20 14 0 72 28 72 35 0 9 -15 4 -50
-15z"/>
<path d="M455 1257 c-88 -45 -162 -83 -165 -85 -2 -1 17 -46 44 -99 26 -53 51
-92 54 -86 4 6 80 47 170 92 89 45 162 86 162 91 0 22 -81 170 -93 170 -6 -1
-84 -38 -172 -83z"/>
<path d="M1199 1296 l-76 -40 220 -436 c121 -239 222 -437 224 -440 4 -4 104
45 140 68 9 6 -50 131 -210 448 l-222 440 -76 -40z"/>
<path d="M992 1191 c-54 -26 -72 -40 -69 -52 3 -9 102 -208 221 -443 l217
-426 72 36 c40 20 73 38 75 39 3 3 -330 672 -400 801 l-43 81 -73 -36z"/>
<path d="M215 1078 c-44 -22 -82 -42 -84 -44 -7 -7 39 -96 47 -92 21 10 158
81 161 84 5 4 -29 83 -38 88 -3 2 -42 -14 -86 -36z"/>
<path d="M1792 947 c-46 -24 -80 -46 -76 -49 8 -9 164 69 164 82 0 13 8 16
-88 -33z"/>
<path d="M1545 343 c-93 -47 -172 -87 -174 -89 -3 -3 0 -9 6 -15 13 -13 363
159 363 178 0 7 -6 13 -12 12 -7 0 -89 -39 -183 -86z"/>
</g>
</svg>
