<?xml version="1.0" encoding="UTF-8"?>
<svg xmlns="http://www.w3.org/2000/svg" xmlns:xlink="http://www.w3.org/1999/xlink" width="96px" height="96px" viewBox="0 0 96 96" version="1.1">
<g id="surface1">
<path style=" stroke:none;fill-rule:nonzero;fill:rgb(0%,0%,0%);fill-opacity:1;" d="M 59.433594 8.234375 C 58.832031 8.535156 58.332031 8.898438 58.332031 9.066406 C 58.332031 9.234375 58.933594 9.035156 59.667969 8.667969 C 60.398438 8.300781 61 7.898438 61 7.832031 C 61 7.566406 60.566406 7.667969 59.433594 8.234375 Z M 59.433594 8.234375 "/>
<path style=" stroke:none;fill-rule:nonzero;fill:rgb(0%,0%,0%);fill-opacity:1;" d="M 61 8.601562 C 61 9.199219 68.566406 24.234375 69.035156 24.535156 C 69.332031 24.699219 69.367188 24.601562 69.234375 24.234375 C 68.699219 22.832031 61 8.234375 61 8.601562 Z M 61 8.601562 "/>
<path style=" stroke:none;fill-rule:nonzero;fill:rgb(0%,0%,0%);fill-opacity:1;" d="M 14.933594 11.832031 C 11.898438 13.367188 9.300781 14.800781 9.167969 15 C 8.535156 16.035156 9.867188 15.566406 15.332031 12.832031 C 20.734375 10.167969 21.832031 9.398438 20.800781 9.132812 C 20.632812 9.066406 18 10.300781 14.933594 11.832031 Z M 14.933594 11.832031 "/>
<path style=" stroke:none;fill-rule:nonzero;fill:rgb(0%,0%,0%);fill-opacity:1;" d="M 58.933594 9.535156 C 58.765625 9.667969 66.332031 24.933594 66.898438 25.632812 C 66.964844 25.734375 67.167969 25.632812 67.367188 25.433594 C 67.632812 25.167969 66.632812 22.867188 63.800781 17.300781 C 60.101562 10.066406 59.433594 9 58.933594 9.535156 Z M 58.933594 9.535156 "/>
<path style=" stroke:none;fill-rule:nonzero;fill:rgb(0%,0%,0%);fill-opacity:1;" d="M 19.167969 11.566406 C 17.898438 12.199219 16.765625 12.800781 16.699219 12.867188 C 16.632812 12.898438 19.933594 19.566406 24.035156 27.601562 L 31.464844 42.265625 L 33.898438 41.066406 C 35.234375 40.398438 36.332031 39.699219 36.332031 39.535156 C 36.332031 39.199219 22.066406 10.964844 21.734375 10.601562 C 21.601562 10.5 20.464844 10.933594 19.167969 11.566406 Z M 19.167969 11.566406 "/>
<path style=" stroke:none;fill-rule:nonzero;fill:rgb(0%,0%,0%);fill-opacity:1;" d="M 12.101562 15.234375 L 9.699219 16.464844 L 17.035156 31.066406 C 21.066406 39.101562 24.535156 45.667969 24.734375 45.667969 C 24.898438 45.667969 26.101562 45.132812 27.367188 44.464844 L 29.667969 43.265625 L 22.234375 28.632812 C 18.167969 20.601562 14.765625 14.035156 14.667969 14.035156 C 14.566406 14.035156 13.433594 14.601562 12.101562 15.234375 Z M 12.101562 15.234375 "/>
<path style=" stroke:none;fill-rule:nonzero;fill:rgb(0%,0%,0%);fill-opacity:1;" d="M 36.265625 17.699219 C 34.832031 18.433594 33.667969 19.167969 33.667969 19.367188 C 33.667969 19.566406 34.832031 19.066406 36.265625 18.300781 C 39.167969 16.699219 39.167969 16.699219 38.964844 16.535156 C 38.898438 16.464844 37.667969 17 36.265625 17.699219 Z M 36.265625 17.699219 "/>
<path style=" stroke:none;fill-rule:nonzero;fill:rgb(0%,0%,0%);fill-opacity:1;" d="M 82.5 19.199219 C 79.933594 20.535156 77.699219 21.699219 77.535156 21.734375 C 77.332031 21.832031 80.632812 29.035156 81.167969 29.601562 C 81.265625 29.699219 91.332031 24.734375 91.667969 24.433594 C 91.933594 24.167969 88 16.667969 87.601562 16.699219 C 87.367188 16.734375 85.066406 17.867188 82.5 19.199219 Z M 82.5 19.199219 "/>
<path style=" stroke:none;fill-rule:nonzero;fill:rgb(0%,0%,0%);fill-opacity:1;" d="M 38.265625 17.867188 L 37.332031 18.367188 L 41.867188 27.433594 C 44.367188 32.398438 46.464844 36.535156 46.5 36.601562 C 46.566406 36.667969 47.066406 36.464844 47.632812 36.199219 L 48.667969 35.667969 L 44.066406 26.5 C 41.566406 21.464844 39.433594 17.332031 39.332031 17.332031 C 39.234375 17.367188 38.765625 17.566406 38.265625 17.867188 Z M 38.265625 17.867188 "/>
<path style=" stroke:none;fill-rule:nonzero;fill:rgb(0%,0%,0%);fill-opacity:1;" d="M 34.898438 19.535156 L 33.964844 20.035156 L 36.601562 25.101562 C 38.066406 27.898438 40.167969 32 41.300781 34.265625 L 43.332031 38.332031 L 44.367188 37.832031 L 45.367188 37.300781 L 40.832031 28.398438 C 38.332031 23.5 36.167969 19.398438 36.066406 19.265625 C 35.933594 19.167969 35.398438 19.265625 34.898438 19.535156 Z M 34.898438 19.535156 "/>
<path style=" stroke:none;fill-rule:nonzero;fill:rgb(0%,0%,0%);fill-opacity:1;" d="M 75.601562 23.566406 C 75 24.066406 74.464844 24.5 74.398438 24.535156 C 74.332031 24.566406 74.933594 25.898438 75.734375 27.464844 C 77.132812 30.300781 77.167969 30.332031 78.167969 30.132812 C 80.898438 29.535156 80.867188 29.734375 79 26 C 78.066406 24.167969 77.199219 22.667969 77.035156 22.667969 C 76.867188 22.667969 76.234375 23.066406 75.601562 23.566406 Z M 75.601562 23.566406 "/>
<path style=" stroke:none;fill-rule:nonzero;fill:rgb(0%,0%,0%);fill-opacity:1;" d="M 70.167969 26.167969 C 68.332031 27.167969 66.699219 28.035156 66.535156 28.101562 C 66.332031 28.167969 69 34.035156 69.5 34.601562 C 69.632812 34.734375 77 31.035156 77 30.832031 C 77 30.5 73.832031 24.332031 73.667969 24.332031 C 73.566406 24.332031 72 25.167969 70.167969 26.167969 Z M 70.167969 26.167969 "/>
<path style=" stroke:none;fill-rule:nonzero;fill:rgb(0%,0%,0%);fill-opacity:1;" d="M 68 25.667969 C 67.367188 26.035156 67.035156 26.300781 67.265625 26.332031 C 67.734375 26.332031 69.667969 25.398438 69.667969 25.167969 C 69.667969 24.867188 69.167969 25.035156 68 25.667969 Z M 68 25.667969 "/>
<path style=" stroke:none;fill-rule:nonzero;fill:rgb(0%,0%,0%);fill-opacity:1;" d="M 64.867188 30.234375 C 64.332031 31.300781 63.832031 32 63.765625 31.765625 C 63.667969 31.5 62.933594 31.699219 61.464844 32.433594 C 60.132812 33.066406 59.367188 33.632812 59.464844 33.898438 C 59.566406 34.132812 59.300781 34.5 58.898438 34.699219 C 58.5 34.933594 58.132812 35.132812 58.066406 35.167969 C 58.035156 35.199219 58.167969 35.632812 58.367188 36.132812 C 58.667969 36.765625 58.933594 36.964844 59.300781 36.800781 C 59.601562 36.667969 60.132812 36.566406 60.5 36.601562 C 61.464844 36.601562 65 34.964844 65 34.464844 C 65 34.167969 65.464844 34.167969 67 34.5 C 68.101562 34.734375 69 34.832031 68.964844 34.699219 C 68.964844 34.601562 68.265625 33.101562 67.398438 31.398438 L 65.800781 28.300781 Z M 64.867188 30.234375 "/>
<path style=" stroke:none;fill-rule:nonzero;fill:rgb(0%,0%,0%);fill-opacity:1;" d="M 71.898438 34.199219 C 71.367188 34.5 71 34.800781 71.101562 34.898438 C 71.199219 34.964844 71.832031 34.734375 72.566406 34.367188 C 73.265625 34 73.601562 33.699219 73.332031 33.699219 C 73.066406 33.699219 72.398438 33.933594 71.898438 34.199219 Z M 71.898438 34.199219 "/>
<path style=" stroke:none;fill-rule:nonzero;fill:rgb(0%,0%,0%);fill-opacity:1;" d="M 55.332031 34.566406 C 55.367188 34.734375 55.933594 35.898438 56.601562 37.234375 C 57.765625 39.464844 57.867188 39.601562 58.5 39.132812 C 59.132812 38.667969 59.132812 38.601562 58.066406 36.5 C 57.199219 34.699219 56.867188 34.332031 56.167969 34.332031 C 55.699219 34.332031 55.332031 34.433594 55.332031 34.566406 Z M 55.332031 34.566406 "/>
<path style=" stroke:none;fill-rule:nonzero;fill:rgb(0%,0%,0%);fill-opacity:1;" d="M 73.667969 34.601562 C 73.667969 35.265625 81.332031 50.332031 81.699219 50.332031 C 81.867188 50.332031 80.898438 48.132812 79.535156 45.398438 C 75.933594 38.265625 73.667969 34.101562 73.667969 34.601562 Z M 73.667969 34.601562 "/>
<path style=" stroke:none;fill-rule:nonzero;fill:rgb(0%,0%,0%);fill-opacity:1;" d="M 50.5 36.800781 C 48.300781 37.964844 45.035156 39.699219 43.234375 40.632812 C 40.332031 42.167969 40.035156 42.398438 40.332031 43 C 40.765625 43.800781 40.765625 44.101562 40.300781 43.800781 C 39.800781 43.5 36 45.332031 36 45.867188 C 36 46.167969 35.535156 46.167969 34 45.832031 C 32.898438 45.601562 32 45.5 32.035156 45.632812 C 32.035156 45.734375 32.734375 47.234375 33.601562 48.933594 L 35.199219 52.035156 L 36.132812 50.101562 C 36.667969 48.964844 37.132812 48.367188 37.300781 48.601562 C 37.667969 49.199219 41.800781 47.167969 41.535156 46.5 C 41.300781 45.832031 41.667969 45.867188 42.167969 46.566406 C 42.535156 47.066406 42.867188 46.964844 45.699219 45.601562 C 47.433594 44.765625 50.699219 43.199219 52.933594 42.132812 C 55.199219 41.035156 57.132812 40.066406 57.199219 39.933594 C 57.367188 39.667969 54.964844 34.667969 54.667969 34.667969 C 54.566406 34.699219 52.699219 35.632812 50.5 36.800781 Z M 50.5 36.800781 "/>
<path style=" stroke:none;fill-rule:nonzero;fill:rgb(0%,0%,0%);fill-opacity:1;" d="M 71.667969 35.667969 C 71.667969 35.964844 79.234375 51.300781 79.535156 51.632812 C 79.632812 51.734375 79.832031 51.632812 80.035156 51.433594 C 80.464844 51 72.734375 35.332031 72.101562 35.332031 C 71.867188 35.332031 71.667969 35.5 71.667969 35.667969 Z M 71.667969 35.667969 "/>
<path style=" stroke:none;fill-rule:nonzero;fill:rgb(0%,0%,0%);fill-opacity:1;" d="M 46.101562 37.601562 C 44.765625 38.265625 43.667969 38.933594 43.667969 39.066406 C 43.667969 39.234375 44.867188 38.734375 46.332031 38 C 48.734375 36.800781 49.464844 36.300781 48.765625 36.367188 C 48.601562 36.367188 47.398438 36.933594 46.101562 37.601562 Z M 46.101562 37.601562 "/>
<path style=" stroke:none;fill-rule:nonzero;fill:rgb(0%,0%,0%);fill-opacity:1;" d="M 30.933594 43.367188 C 27.667969 45 25 46.464844 25 46.601562 C 25 47.367188 25.699219 47.132812 29.300781 45.332031 C 35.832031 42.035156 37.300781 41.167969 37.066406 40.765625 C 36.898438 40.535156 34.800781 41.433594 30.933594 43.367188 Z M 30.933594 43.367188 "/>
<path style=" stroke:none;fill-rule:nonzero;fill:rgb(0%,0%,0%);fill-opacity:1;" d="M 49.832031 44.566406 C 47.199219 45.898438 47.167969 45.933594 47.398438 46.167969 C 47.632812 46.433594 52.667969 43.933594 52.667969 43.601562 C 52.667969 43.167969 52.300781 43.300781 49.832031 44.566406 Z M 49.832031 44.566406 "/>
<path style=" stroke:none;fill-rule:nonzero;fill:rgb(0%,0%,0%);fill-opacity:1;" d="M 51.832031 44.734375 C 51.464844 44.933594 51.132812 45.132812 51.066406 45.167969 C 50.933594 45.265625 56.398438 56.234375 58.734375 60.566406 L 60.398438 63.667969 L 61.332031 63.167969 L 62.300781 62.667969 L 57.667969 53.601562 C 55.132812 48.601562 52.933594 44.464844 52.765625 44.433594 C 52.632812 44.398438 52.199219 44.535156 51.832031 44.734375 Z M 51.832031 44.734375 "/>
<path style=" stroke:none;fill-rule:nonzero;fill:rgb(0%,0%,0%);fill-opacity:1;" d="M 27.601562 47.332031 C 25.667969 48.332031 23.964844 49.265625 23.832031 49.367188 C 23.667969 49.566406 26.367188 55.433594 26.867188 55.964844 C 27 56.101562 33.800781 52.964844 34.632812 52.398438 C 34.800781 52.300781 31.601562 45.632812 31.332031 45.535156 C 31.234375 45.5 29.566406 46.300781 27.601562 47.332031 Z M 27.601562 47.332031 "/>
<path style=" stroke:none;fill-rule:nonzero;fill:rgb(0%,0%,0%);fill-opacity:1;" d="M 48.5 46.398438 C 48.132812 46.601562 47.800781 46.800781 47.734375 46.832031 C 47.632812 46.898438 56.566406 64.964844 56.832031 65.265625 C 56.898438 65.332031 57.398438 65.132812 57.964844 64.867188 L 59 64.332031 L 54.398438 55.167969 C 51.898438 50.132812 49.699219 46 49.5 46 C 49.332031 46 48.867188 46.199219 48.5 46.398438 Z M 48.5 46.398438 "/>
<path style=" stroke:none;fill-rule:nonzero;fill:rgb(0%,0%,0%);fill-opacity:1;" d="M 35.632812 53.101562 C 32.132812 54.933594 29.832031 56.332031 29.898438 56.566406 C 30 56.832031 32.199219 55.898438 36.167969 53.933594 C 40.300781 51.867188 42.199219 50.734375 42.101562 50.433594 C 42 50.199219 41.832031 50 41.699219 50 C 41.601562 50.035156 38.867188 51.398438 35.632812 53.101562 Z M 35.632812 53.101562 "/>
<path style=" stroke:none;fill-rule:nonzero;fill:rgb(0%,0%,0%);fill-opacity:1;" d="M 23.101562 51.398438 C 22.132812 51.867188 22.132812 51.933594 23.234375 54.132812 L 24.132812 55.964844 L 26 54.964844 L 25 53 C 24.433594 51.898438 23.964844 51 23.898438 51.035156 C 23.867188 51.035156 23.5 51.199219 23.101562 51.398438 Z M 23.101562 51.398438 "/>
<path style=" stroke:none;fill-rule:nonzero;fill:rgb(0%,0%,0%);fill-opacity:1;" d="M 80.667969 51.667969 C 80.035156 52.035156 79.699219 52.300781 79.933594 52.332031 C 80.398438 52.332031 82.332031 51.398438 82.332031 51.167969 C 82.332031 50.867188 81.832031 51.035156 80.667969 51.667969 Z M 80.667969 51.667969 "/>
<path style=" stroke:none;fill-rule:nonzero;fill:rgb(0%,0%,0%);fill-opacity:1;" d="M 15.167969 54.101562 C 12.234375 55.601562 9.765625 56.867188 9.667969 56.933594 C 9.601562 56.964844 10.234375 58.464844 11.132812 60.234375 C 12 62 12.832031 63.300781 12.933594 63.101562 C 13.066406 62.898438 15.601562 61.535156 18.601562 60.035156 C 21.566406 58.535156 24 57.167969 24 57 C 24 56.265625 21.300781 51.332031 20.898438 51.332031 C 20.699219 51.367188 18.101562 52.601562 15.167969 54.101562 Z M 15.167969 54.101562 "/>
<path style=" stroke:none;fill-rule:nonzero;fill:rgb(0%,0%,0%);fill-opacity:1;" d="M 39.964844 52.800781 L 37.433594 54.132812 L 44.765625 68.667969 C 48.800781 76.632812 52.167969 83.234375 52.234375 83.332031 C 52.367188 83.464844 55.699219 81.832031 56.898438 81.066406 C 57.199219 80.867188 55.234375 76.699219 49.898438 66.132812 L 42.5 51.464844 Z M 39.964844 52.800781 "/>
<path style=" stroke:none;fill-rule:nonzero;fill:rgb(0%,0%,0%);fill-opacity:1;" d="M 33.066406 56.300781 C 31.265625 57.167969 30.667969 57.632812 30.765625 58.035156 C 30.867188 58.332031 34.167969 64.964844 38.132812 72.800781 L 45.367188 87 L 47.765625 85.800781 C 49.101562 85.132812 50.199219 84.535156 50.265625 84.5 C 50.367188 84.398438 39.265625 62.101562 36.933594 57.800781 L 35.5 55.101562 Z M 33.066406 56.300781 "/>
<path style=" stroke:none;fill-rule:nonzero;fill:rgb(0%,0%,0%);fill-opacity:1;" d="M 7.167969 60.066406 C 5.699219 60.800781 4.433594 61.464844 4.367188 61.535156 C 4.132812 61.765625 5.667969 64.734375 5.933594 64.601562 C 6.632812 64.265625 11.199219 61.898438 11.300781 61.800781 C 11.464844 61.667969 10.332031 59.035156 10.035156 58.867188 C 9.933594 58.800781 8.632812 59.332031 7.167969 60.066406 Z M 7.167969 60.066406 "/>
<path style=" stroke:none;fill-rule:nonzero;fill:rgb(0%,0%,0%);fill-opacity:1;" d="M 59.734375 64.433594 C 58.199219 65.234375 57.066406 65.964844 57.199219 66.066406 C 57.464844 66.367188 62.667969 63.765625 62.667969 63.332031 C 62.667969 62.898438 62.933594 62.800781 59.734375 64.433594 Z M 59.734375 64.433594 "/>
<path style=" stroke:none;fill-rule:nonzero;fill:rgb(0%,0%,0%);fill-opacity:1;" d="M 51.5 84.566406 C 48.398438 86.132812 45.765625 87.464844 45.699219 87.535156 C 45.601562 87.632812 45.699219 87.832031 45.898438 88.035156 C 46.332031 88.464844 58 82.734375 58 82.101562 C 58 81.867188 57.800781 81.667969 57.601562 81.699219 C 57.367188 81.699219 54.632812 83 51.5 84.566406 Z M 51.5 84.566406 "/>
</g>
</svg>
